
        <svg xmlns="http://www.w3.org/2000/svg" xmlns:xlink="http://www.w3.org/1999/xlink" version="1.1" width="3206.896551724138" 
        height="1265.7524706743795" viewBox="0 0 3206.896551724138 1265.7524706743795">
			
			<g transform="scale(10.344827586206899) translate(10, 10)">
				<defs id="SvgjsDefs1745"></defs><g id="SvgjsG1746" featureKey="nameFeature-0" transform="matrix(3.3178434394721874,0,0,3.3178434394721874,3.6816893231241083,-56.44849710670848)" fill="#e3d9ca"><path d="M15.8 34.88 c0.56 0 0.76 0.44 0.16 0.52 c-1.72 0.28 -9.16 1.8 -11.72 3 c-0.12 0.4 -0.36 0.88 -0.6 1.32 c-1.56 2.6 -3.88 2.96 -4.36 2.24 c-0.32 -0.52 0.76 -2.28 3.92 -3.72 c0.04 0 0.08 -0.04 0.16 -0.08 c0.28 -0.72 0.36 -1.36 0.16 -1.68 s-0.88 -0.08 -1.92 0.84 c-0.96 0.88 -1.92 1.72 -2.36 1.64 c-0.6 -0.08 -0.28 -1.52 -0.12 -2.12 c1.28 -4.52 2.76 -10.64 4.68 -16.56 c0.8 -2.48 1.36 -3.64 1.92 -3.16 c0.36 0.36 0.28 1.56 -0.32 2.68 c-0.64 1.28 -0.84 2.12 -1.12 2.88 c-2.32 6.68 -3.04 9.8 -4.48 14.16 c-0.08 0.32 -0.44 1.28 -0.24 1.28 c0.16 0 0.92 -0.68 1.6 -1.36 c1.36 -1.32 2.44 -1.64 2.96 -1.24 c0.4 0.28 0.56 1.08 0.32 2.2 c3.84 -1.48 9.96 -2.84 11.36 -2.84 z M2.8 39.36 l0.12 -0.28 c-1.64 0.96 -3.04 2.04 -2.84 2.4 c0.2 0.28 1.92 -0.64 2.72 -2.12 z M28.759999999999998 40.2 c2.8 0 10.92 -3.76 13.36 -5.08 c0.2 -0.12 1.04 -0.08 0.36 0.36 c-2.64 1.72 -11.12 5.56 -13.76 5.56 c-1.96 0 -2.52 -1.16 -2.52 -2 s0.16 -1.24 0.08 -1.32 c-0.12 -0.12 -0.36 -0.08 -1.64 0.6 c-1.16 0.68 -2.44 1.2 -2.84 1.2 c-0.56 0 -0.96 -0.36 -0.96 -0.6 c0 -0.76 0.48 -1.8 2 -2.92 c1.28 -1 2.08 -1.2 2.76 -1.2 c0.92 0 1.48 1.44 1.08 1.44 s-0.52 -0.8 -0.96 -0.8 c-0.4 0 -1.2 0.32 -2.32 1.08 c-1.04 0.68 -1.84 1.84 -1.84 2.16 c0 0.08 0.04 0.12 0.16 0.12 c0.36 0 1.04 -0.28 2.16 -0.84 c1.52 -0.72 2.52 -1.28 3 -1.28 c0.16 0 0.52 0.08 0.52 0.36 c0 0.32 -0.4 1.04 -0.4 1.96 c0 0.68 0.72 1.2 1.76 1.2 z M52.599999999999994 41.24 c-0.88 -0.12 -1.48 -1.04 -0.52 -3.04 c0.4 -0.88 0.68 -1.4 0.68 -1.6 c0 -0.16 -0.12 -0.28 -0.96 -0.6 c-1.08 -0.4 -1.24 -1.44 -1.04 -2.24 c0.36 -1.44 1.52 -1.88 2.12 -1.76 c0.32 0.08 0.76 0.52 0.72 0.84 c-0.12 1.04 -0.76 1.72 -1.84 2.32 c0.08 0.08 0.2 0.16 0.36 0.2 c1.48 0.6 1.68 0.72 1.68 1.08 c0 0.32 -0.44 0.96 -0.96 2.08 c-0.6 1.24 -0.64 1.76 0.04 1.84 c2.24 0.28 7.96 -1.52 12.16 -5.12 c0.4 -0.36 0.88 -0.08 0.52 0.24 c-4.24 4.04 -10.92 6.04 -12.96 5.76 z M51.559999999999995 33.96 c-0.08 0.24 -0.12 0.48 -0.04 0.72 c1.16 -0.72 1.44 -1.32 1.48 -1.88 c0 -0.08 0 -0.12 -0.08 -0.16 c-0.4 -0.12 -1.16 0.68 -1.36 1.32 z M74.39999999999999 40.48 c-2.08 0.16 -3 -1.6 -2.16 -3.44 c0.8 -1.84 2.4 -2.56 3.24 -2.4 c0.76 0.12 1 0.76 0.68 1.68 c-0.48 1.24 -1.96 2.12 -3.4 2.6 c0.16 0.56 0.68 0.84 1.4 0.8 c1.84 -0.16 4.4 -1.44 11.64 -4.6 c0.52 -0.24 0.64 0.28 0.32 0.4 c-6.08 2.68 -9.52 4.8 -11.72 4.96 z M72.95999999999998 37.32 c-0.2 0.44 -0.28 0.8 -0.28 1.12 c1.16 -0.4 2.56 -1.52 2.88 -2.4 c0.12 -0.36 0.08 -0.72 -0.2 -0.8 c-0.44 -0.12 -1.72 0.4 -2.4 2.08 z"></path></g><g id="SvgjsG1747" featureKey="sloganFeature-0" transform="matrix(0.6782526276117105,0,0,0.6782526276117105,71.27723835173954,89.10301649436258)" fill="#e3d9ca"><path d="M2.54 18.76 l0 -10.76 c0 -0.42 0.32 -0.64 0.64 -0.64 s0.66 0.22 0.66 0.64 l0 10.06 l3.98 0 c0.44 0 0.68 0.34 0.68 0.68 s-0.24 0.66 -0.68 0.66 l-4.62 0 c-0.4 0 -0.66 -0.32 -0.66 -0.64 z M15.0415 18.7 l0 -10.64 c0 -0.46 0.36 -0.7 0.7 -0.7 l4.6 0 c0.44 0 0.66 0.32 0.66 0.66 s-0.22 0.68 -0.66 0.68 l-3.96 0 l0 3.88 l3.14 0 c0.46 0 0.68 0.32 0.68 0.66 s-0.24 0.7 -0.68 0.7 l-3.14 0 l0 4.14 l3.96 0 c0.42 0 0.64 0.34 0.64 0.66 c0 0.34 -0.22 0.66 -0.64 0.66 l-4.6 0 c-0.34 0 -0.7 -0.12 -0.7 -0.7 z M35.003 8 l0 10.76 c0 0.42 -0.32 0.64 -0.64 0.64 c-0.24 0 -0.56 -0.18 -0.7 -0.44 c-1.5 -2.94 -2.62 -5.2 -4.12 -8.16 l0 7.96 c0 0.42 -0.32 0.64 -0.66 0.64 c-0.32 0 -0.66 -0.22 -0.66 -0.64 l0 -10.76 c0 -0.7 1 -0.74 1.22 -0.32 l4.22 8.34 l0 -8.02 c0 -0.42 0.32 -0.64 0.66 -0.64 s0.68 0.22 0.68 0.64 z M42.4445 17.68 c-0.44 -0.82 0.68 -1.42 1.2 -0.6 c0.26 0.42 1.04 1.14 2.28 1.14 c0.52 0 1.82 -0.38 2 -1.86 c0.12 -0.9 -0.74 -1.78 -2.22 -2.52 c-2.08 -0.98 -3.66 -1.84 -3.66 -3.56 c0 -2.04 1.72 -3 3.56 -3 c1.66 0 2.58 1.02 2.9 1.54 c0.46 0.74 -0.54 1.46 -1.1 0.74 c-0.28 -0.36 -0.82 -0.96 -1.8 -0.96 c-1.1 0 -2.24 0.52 -2.24 1.68 c0 0.92 1.02 1.44 2.54 2.16 c1.78 0.88 3.64 1.74 3.36 4.08 c-0.22 1.84 -1.62 3.02 -3.34 3.02 c-1.3 0 -2.9 -0.7 -3.48 -1.86 z M72.9875 10.28 l0 2.5 c0 2.38 -1.24 3.14 -3.34 3.14 l-1.86 0 l0 2.84 c0 0.42 -0.34 0.64 -0.66 0.64 c-0.34 0 -0.66 -0.22 -0.66 -0.64 l0 -10.74 c0 -0.38 0.32 -0.66 0.66 -0.66 l2.7 0 c1.1 0 3.16 0.22 3.16 2.92 z M69.8275 8.7 l-2.04 0 l0 5.86 l1.86 0 c0.98 0 2.04 -0.24 2.02 -1.8 l-0.02 -2.48 c0 -0.48 -0.08 -1.58 -1.82 -1.58 z M79.709 18.76 l0 -10.76 c0 -0.42 0.32 -0.62 0.66 -0.62 s0.68 0.2 0.68 0.62 l0 4.58 l4.54 0 l0 -4.58 c0 -0.42 0.32 -0.64 0.64 -0.64 s0.66 0.22 0.66 0.64 l0 10.76 c0 0.42 -0.34 0.64 -0.66 0.64 s-0.64 -0.22 -0.64 -0.64 l0 -4.82 l-4.54 0 l0 4.82 c0 0.42 -0.34 0.64 -0.68 0.64 s-0.66 -0.22 -0.66 -0.64 z M94.41050000000001 15.86 l0 -4.96 c0 -2.4 1.24 -3.68 3.64 -3.68 l0.52 0 c2.38 0 3.64 1.28 3.64 3.68 l0 4.96 c0 2.2 -1.46 3.64 -3.64 3.64 l-0.52 0 c-2.22 0 -3.64 -1.46 -3.64 -3.64 z M98.05050000000001 18.16 l0.52 0 c1.44 0 2.3 -0.9 2.3 -2.3 l0 -4.96 c0 -1.56 -0.76 -2.36 -2.3 -2.36 l-0.52 0 c-1.52 0 -2.36 0.82 -2.36 2.36 l0 4.96 c0 1.46 0.92 2.3 2.36 2.3 z M109.27200000000002 7.359999999999999 l6.04 0 c0.42 0 0.62 0.34 0.62 0.68 s-0.2 0.66 -0.62 0.66 l-2.28 0 l0 10.06 c0 0.42 -0.34 0.64 -0.68 0.64 s-0.66 -0.22 -0.66 -0.64 l0 -10.06 l-2.42 0 c-0.42 0 -0.62 -0.32 -0.62 -0.66 s0.2 -0.68 0.62 -0.68 z M122.59350000000002 15.86 l0 -4.96 c0 -2.4 1.24 -3.68 3.64 -3.68 l0.52 0 c2.38 0 3.64 1.28 3.64 3.68 l0 4.96 c0 2.2 -1.46 3.64 -3.64 3.64 l-0.52 0 c-2.22 0 -3.64 -1.46 -3.64 -3.64 z M126.23350000000002 18.16 l0.52 0 c1.44 0 2.3 -0.9 2.3 -2.3 l0 -4.96 c0 -1.56 -0.76 -2.36 -2.3 -2.36 l-0.52 0 c-1.52 0 -2.36 0.82 -2.36 2.36 l0 4.96 c0 1.46 0.92 2.3 2.36 2.3 z M137.57500000000002 15.879999999999999 l0 -4.82 c0 -2.88 1.58 -3.74 3.9 -3.74 c1.92 0 3.78 0.98 3.78 3 c0 0.44 -0.32 0.66 -0.66 0.66 s-0.68 -0.22 -0.68 -0.66 c0 -1.02 -1.12 -1.7 -2.44 -1.7 c-1.82 0 -2.58 0.74 -2.58 2.44 l0 4.82 c0 1.74 0.96 2.28 2.58 2.28 c1.92 0 2.6 -0.92 2.6 -2.7 l0 -0.84 l-1.8 0 c-0.42 0 -0.64 -0.32 -0.64 -0.66 s0.22 -0.68 0.64 -0.68 l2.5 0 c0.4 0 0.62 0.4 0.62 0.68 l0 1.5 c0 2.88 -1.12 4 -3.92 4 c-2.64 0 -3.9 -0.96 -3.9 -3.58 z M154.0765 15.9 l0 2.86 c0 0.44 -0.34 0.64 -0.66 0.64 c-0.34 0 -0.66 -0.2 -0.66 -0.64 l0 -10.74 c0 -0.4 0.22 -0.66 0.66 -0.66 l2.7 0 c0.76 0 3.16 0.22 3.16 2.92 l0 2.5 c0 1.52 -0.56 2.48 -1.84 2.9 l1.36 2.74 c0.28 0.54 -0.14 0.98 -0.58 0.98 c-0.24 0 -0.54 -0.16 -0.7 -0.5 l-1.46 -3 l-1.98 0 z M157.9565 12.780000000000001 l0 -2.5 c0 -0.48 -0.18 -1.58 -1.84 -1.58 l-2.04 0 l0 5.86 l1.86 0 c0.98 0 2.02 -0.22 2.02 -1.78 z M172.61800000000002 18.86 l-0.78 -2.54 l-3.72 0 l-0.74 2.5 c-0.26 0.86 -1.58 0.6 -1.3 -0.28 c1.04 -3.5 2.06 -7.06 3.08 -10.6 c0.12 -0.38 0.44 -0.58 0.76 -0.58 c0.3 0 0.62 0.2 0.74 0.58 l3.18 10.6 c0.22 0.76 -0.96 1.18 -1.22 0.32 z M169.95800000000003 10.06 l-1.44 4.92 l2.94 0 c-0.5 -1.68 -0.96 -3.12 -1.5 -4.92 z M187.43950000000004 10.28 l0 2.5 c0 2.38 -1.24 3.14 -3.34 3.14 l-1.86 0 l0 2.84 c0 0.42 -0.34 0.64 -0.66 0.64 c-0.34 0 -0.66 -0.22 -0.66 -0.64 l0 -10.74 c0 -0.38 0.32 -0.66 0.66 -0.66 l2.7 0 c1.1 0 3.16 0.22 3.16 2.92 z M184.2795 8.7 l-2.04 0 l0 5.86 l1.86 0 c0.98 0 2.04 -0.24 2.02 -1.8 l-0.02 -2.48 c0 -0.48 -0.08 -1.58 -1.82 -1.58 z M194.16100000000003 18.76 l0 -10.76 c0 -0.42 0.32 -0.62 0.66 -0.62 s0.68 0.2 0.68 0.62 l0 4.58 l4.54 0 l0 -4.58 c0 -0.42 0.32 -0.64 0.64 -0.64 s0.66 0.22 0.66 0.64 l0 10.76 c0 0.42 -0.34 0.64 -0.66 0.64 s-0.64 -0.22 -0.64 -0.64 l0 -4.82 l-4.54 0 l0 4.82 c0 0.42 -0.34 0.64 -0.68 0.64 s-0.66 -0.22 -0.66 -0.64 z M214.76250000000005 8.3 l-2.48 5.14 l0 5.32 c0 0.44 -0.32 0.64 -0.64 0.64 c-0.34 0 -0.66 -0.22 -0.66 -0.64 l0 -5.32 l-2.54 -5.12 c-0.42 -0.88 0.8 -1.4 1.22 -0.56 l1.98 3.96 l1.9 -3.94 c0.44 -0.92 1.64 -0.34 1.22 0.52 z"></path></g>
			</g>
		</svg>
	